<svg width="18" height="18" viewBox="0 0 18 18" fill="none" xmlns="http://www.w3.org/2000/svg">
<g id="Component 1">
<path id="Vector 4119" d="M6.39502 2.50999L0.651246 13.9975C0.352041 14.5959 0.787187 15.3 1.45623 15.3H12.9438C13.6128 15.3 14.048 14.5959 13.7488 13.9975L8.00498 2.50999C7.67331 1.84665 6.72669 1.84665 6.39502 2.50999Z" fill="#4FC578"/>
<path id="Vector 4120" d="M11.8098 6.84855L7.19995 15.3H16.4839C17.167 15.3 17.6011 14.5688 17.274 13.9691L13.3901 6.84855C13.0489 6.22317 12.151 6.22317 11.8098 6.84855Z" fill="#23B169"/>
<path id="Intersect" fill-rule="evenodd" clip-rule="evenodd" d="M3.6001 8.09985L6.21038 4.73666L7.11038 6.53666L8.01038 4.73666L9.89998 6.2999L8.00501 2.50996C7.67334 1.84662 6.72671 1.84662 6.39504 2.50996L3.6001 8.09985Z" fill="#E5E8EB"/>
</g>
</svg>
