<svg width="18" height="18" viewBox="0 0 18 18" fill="none" xmlns="http://www.w3.org/2000/svg">
<g id="Component 1" clip-path="url(#clip0_7902_4591)">
<path id="Ellipse 3378" d="M15.1138 6.47165C15.6734 7.46157 15.6139 8.75913 14.93 10.1135C14.2483 11.4635 12.9715 12.8037 11.2433 13.7807C9.51508 14.7578 7.70842 15.1609 6.20017 15.0489C4.68714 14.9366 3.54464 14.3187 2.98498 13.3287C2.42532 12.3388 2.48486 11.0412 3.16872 9.68692C3.85042 8.33686 5.12728 6.99667 6.85547 6.01963C8.58366 5.04258 10.3903 4.6395 11.8986 4.75144C13.4116 4.86374 14.5541 5.48172 15.1138 6.47165Z" stroke="#DCE0E5" stroke-width="1.16108"/>
<path id="Ellipse 3379" d="M15.2948 6.79125C15.794 7.67439 15.7105 8.8807 14.9923 10.1889C14.2792 11.4878 12.9787 12.7989 11.2432 13.7801C9.50763 14.7613 7.71381 15.1996 6.23313 15.1409C4.74193 15.0818 3.66525 14.5315 3.16596 13.6483C2.66668 12.7652 2.75021 11.5589 3.46842 10.2507C4.18156 8.95175 5.48199 7.64072 7.21753 6.65952C8.95308 5.67832 10.7469 5.23999 12.2276 5.29866C13.7188 5.35775 14.7955 5.90812 15.2948 6.79125Z" stroke="#DCE0E5" stroke-width="1.16108"/>
<path id="Vector 4112" d="M5.2247 5.28329L6.96632 6.44437H8.1274L9.28848 5.28329V4.12221V2.38059L6.96632 1.80005L5.2247 2.96113L4.64417 4.12221L5.2247 5.28329Z" fill="#5A81FF"/>
<path id="Vector 4113" d="M6.96672 5.28361H5.2251L6.96672 3.54199V5.28361Z" fill="#5A81FF"/>
<path id="Vector 4118" d="M5.2247 5.28361L4.64417 4.12253L6.96632 3.54199L5.2247 5.28361Z" fill="#7D9DFF"/>
<path id="Vector 4114" d="M8.70781 4.12253L6.96619 5.28361V3.54199L8.70781 4.12253Z" fill="#CAD8FF"/>
<path id="Vector 4115" d="M9.28835 2.38098L8.70781 4.1226L6.96619 3.54206L9.28835 2.38098Z" fill="#A8BFFF"/>
<path id="Vector 4116" d="M9.28835 2.38059L6.96619 1.80005V3.54167L9.28835 2.38059Z" fill="#CAD8FF"/>
<path id="Vector 4117" d="M6.96672 1.80005L5.2251 2.96113L6.96672 3.54167V1.80005Z" fill="#7D9DFF"/>
</g>
<defs>
<clipPath id="clip0_7902_4591">
<rect width="18" height="18" fill="white"/>
</clipPath>
</defs>
</svg>
