<svg width="18" height="17" viewBox="0 0 18 17" fill="none" xmlns="http://www.w3.org/2000/svg">
<g id="Group 1171276422">
<path id="Union" fill-rule="evenodd" clip-rule="evenodd" d="M2.07559 1.97263C2.10055 1.72536 2.32124 1.54514 2.56851 1.5701L7.9412 2.11252C8.18847 2.13749 8.36869 2.35818 8.34372 2.60545L7.84651 7.53041C7.67149 9.26392 6.65508 10.9125 5.40159 11.487C5.01916 11.6623 4.68321 11.9834 4.64095 12.402L4.41169 14.6728C4.37278 15.0583 4.58487 15.4253 4.93821 15.5841L6.77055 16.4076C6.87322 16.4538 6.93485 16.5604 6.92354 16.6724C6.90903 16.8161 6.78078 16.9209 6.63708 16.9063L0.889326 16.3261C0.745627 16.3116 0.640897 16.1833 0.655404 16.0396C0.666711 15.9276 0.748413 15.8354 0.858235 15.8107L2.8182 15.3701C3.19615 15.2851 3.47733 14.9679 3.51624 14.5824L3.74551 12.3116C3.78776 11.893 3.52277 11.5113 3.1831 11.2631C2.06974 10.4496 1.40336 8.6311 1.57837 6.89759L2.07559 1.97263Z" fill="#E5E9EE"/>
<path id="Rectangle 3466787" d="M2.11702 6.04703L7.62531 5.24628L7.3541 7.93262C7.1733 9.72352 5.5425 11.368 4.30615 11.2432C3.06979 11.1184 1.80061 9.1811 1.98141 7.3902L2.11702 6.04703Z" fill="#FFDA16"/>
<path id="Vector 4093" d="M2.11702 6.04703C3.41499 6.63036 6.54906 6.94677 7.62531 5.24628C5.83442 5.06547 4.40084 5.82531 2.11702 6.04703Z" fill="#FFC100"/>
<g id="Group 1171276421">
<path id="Union_2" fill-rule="evenodd" clip-rule="evenodd" d="M8.54473 2.52307C8.49812 2.27895 8.65822 2.04326 8.90234 1.99665L14.2065 0.983775C14.4506 0.937159 14.6863 1.09727 14.7329 1.34138L15.6614 6.20353C15.9882 7.91492 15.4843 9.78495 14.4468 10.6932C14.1303 10.9703 13.8999 11.3739 13.9788 11.7871L14.4069 14.029C14.4796 14.4095 14.7876 14.7009 15.1716 14.7523L17.1627 15.0188C17.2743 15.0337 17.3637 15.1184 17.3849 15.2289C17.412 15.3708 17.3189 15.5078 17.177 15.5349L11.5026 16.6184C11.3607 16.6455 11.2238 16.5525 11.1967 16.4106C11.1756 16.3001 11.2276 16.1884 11.3258 16.1334L13.0786 15.1519C13.4166 14.9627 13.5956 14.5784 13.5229 14.1978L13.0948 11.9559C13.0159 11.5427 12.653 11.2524 12.2566 11.1115C10.9575 10.6494 9.80001 9.09661 9.4732 7.38521L8.54473 2.52307Z" fill="#E5E9EE"/>
<path id="Rectangle 3466788" d="M9.74712 6.41747L14.8825 4.52057L15.3045 6.73064C15.6421 8.49869 14.5483 10.5401 13.3277 10.7732C12.1071 11.0063 10.338 9.51157 10.0003 7.74351L9.74712 6.41747Z" fill="#FFDA16"/>
<path id="Vector 4094" d="M9.74741 6.41714C11.5998 6.52107 13.8098 6.09904 14.8828 4.52024C12.8614 3.53146 11.8731 5.55309 9.74741 6.41714Z" fill="#FFC100"/>
</g>
</g>
</svg>
