<svg width="18" height="18" viewBox="0 0 18 18" fill="none" xmlns="http://www.w3.org/2000/svg">
<g clip-path="url(#clip0_7902_5963)">
<path fill-rule="evenodd" clip-rule="evenodd" d="M13.5317 14.7164C13.9384 15.227 14.7273 15.4927 15.1247 15.1097C16.7973 13.4975 17.2178 10.9925 15.9913 8.47792C14.1926 4.78995 9.48077 2.49184 5.46719 3.34495C1.4536 4.19806 -0.341877 7.87934 1.45687 11.5673C2.67744 14.0699 5.21436 15.9364 7.98213 16.6098C8.65429 16.7733 9.0642 16.2349 8.94599 15.6541C8.74855 14.6839 8.95415 13.6587 10.3526 13.3615C11.7676 13.0607 12.8337 13.8401 13.5317 14.7164Z" fill="#AD7E4D"/>
<circle cx="1.32082" cy="1.32082" r="1.32082" transform="matrix(0.978148 -0.207912 0.438371 0.898794 1.75598 6.4541)" fill="#AD7E4D"/>
<circle cx="1.32082" cy="1.32082" r="1.32082" transform="matrix(0.978148 -0.207912 0.438371 0.898794 1.57666 9.98633)" fill="#AD7E4D"/>
<circle cx="1.32082" cy="1.32082" r="1.32082" transform="matrix(0.978148 -0.207912 0.438371 0.898794 4.53687 4.36133)" fill="#AD7E4D"/>
<circle cx="1.32082" cy="1.32082" r="1.32082" transform="matrix(0.978148 -0.207912 0.438371 0.898794 8.64661 4.99023)" fill="#AD7E4D"/>
<circle cx="1.32082" cy="1.32082" r="1.32082" transform="matrix(0.978148 -0.207912 0.438371 0.898794 11.9126 7.78906)" fill="#AD7E4D"/>
<path d="M8.09998 16.6052C8.99998 16.7402 9.53998 15.7502 9.08998 13.9502C8.37073 14.3102 8.09998 16.1552 8.09998 16.6052Z" fill="#AD7E4D"/>
<path fill-rule="evenodd" clip-rule="evenodd" d="M13.8174 13.7799C14.224 14.2904 15.013 14.5562 15.4104 14.1731C17.0829 12.5609 17.5034 10.056 16.277 7.5414C14.4782 3.85342 9.76641 1.55531 5.75283 2.40843C1.73925 3.26154 -0.0562329 6.94282 1.74251 10.6308C2.96309 13.1333 5.5 14.9999 8.26778 15.6732C8.93993 15.8368 9.34984 15.2984 9.23163 14.7176C9.03419 13.7474 9.23979 12.7222 10.6382 12.4249C12.0533 12.1241 13.1194 12.9035 13.8174 13.7799Z" fill="#E4B15A"/>
<circle cx="1.32082" cy="1.32082" r="1.32082" transform="matrix(0.978148 -0.207912 0.438371 0.898794 2.04163 5.51758)" fill="#4EA2D6"/>
<circle cx="1.32082" cy="1.32082" r="1.32082" transform="matrix(0.978148 -0.207912 0.438371 0.898794 1.8623 9.0498)" fill="#9F3FC0"/>
<circle cx="1.32082" cy="1.32082" r="1.32082" transform="matrix(0.978148 -0.207912 0.438371 0.898794 4.82251 3.4248)" fill="#71EC41"/>
<circle cx="1.32082" cy="1.32082" r="1.32082" transform="matrix(0.978148 -0.207912 0.438371 0.898794 8.93225 4.05371)" fill="#F7E651"/>
<circle cx="1.32082" cy="1.32082" r="1.32082" transform="matrix(0.978148 -0.207912 0.438371 0.898794 12.1982 6.85254)" fill="#EF4452"/>
</g>
<defs>
<clipPath id="clip0_7902_5963">
<rect width="18" height="18" fill="white"/>
</clipPath>
</defs>
</svg>
