<svg width="18" height="18" viewBox="0 0 18 18" fill="none" xmlns="http://www.w3.org/2000/svg">
<g id="Component 1">
<path id="Vector 4124" d="M1.79999 12.6H16.2V12.31C16.2 9.94093 14.3632 7.97757 11.9993 7.81998L11.5126 7.78753C10.2954 7.70638 9.28382 6.8192 9.04459 5.62302L8.29138 1.857C8.18828 1.34147 7.66712 1.0237 7.16161 1.16813L2.45274 2.51352C2.06637 2.62392 1.79999 2.97706 1.79999 3.3789V12.6Z" fill="#72C3C2"/>
<path id="Rectangle 3466795" d="M1.79999 12.6H16.2V13.5C16.2 13.997 15.797 14.4 15.3 14.4H2.69999C2.20293 14.4 1.79999 13.997 1.79999 13.5V12.6Z" fill="#9F6E53"/>
<circle id="Ellipse 3380" cx="4.50001" cy="15.3" r="1.8" fill="#F692A4"/>
<circle id="Ellipse 3382" cx="4.49998" cy="15.3" r="0.9" fill="white"/>
<circle id="Ellipse 3381" cx="13.5" cy="15.3" r="1.8" fill="#F692A4"/>
<circle id="Ellipse 3383" cx="13.5" cy="15.3" r="0.9" fill="white"/>
<path id="Vector 4125" d="M6.29999 4.94998L8.54999 3.59998" stroke="#054F4F" stroke-width="0.9" stroke-linecap="round"/>
<path id="Vector 4126" d="M7.20001 6.75002L9.00001 5.40002" stroke="#054F4F" stroke-width="0.9" stroke-linecap="round"/>
<path id="Vector 4127" d="M8.09998 8.54995L9.89998 7.19995" stroke="#054F4F" stroke-width="0.9" stroke-linecap="round"/>
</g>
</svg>
