<svg width="18" height="18" viewBox="0 0 18 18" fill="none" xmlns="http://www.w3.org/2000/svg">
<g id="Component 1">
<path id="Ellipse 3368" d="M16.2 13.95C16.2 16.1868 12.9765 18 9.00005 18C5.0236 18 1.80005 16.1868 1.80005 13.95C1.80005 11.7133 5.0236 9.90002 9.00005 9.90002C12.9765 9.90002 16.2 11.7133 16.2 13.95Z" fill="#AE8966"/>
<path id="Ellipse 3374" d="M15.75 13.95C15.75 15.6897 12.4794 17.55 9 17.55C5.52061 17.55 2.25 15.6897 2.25 13.95C2.25 12.2103 5.52061 10.35 9 10.35C12.4794 10.35 15.75 12.2103 15.75 13.95Z" fill="#7C5C46"/>
<path id="Union" fill-rule="evenodd" clip-rule="evenodd" d="M16.2 4.5H1.80005V7.5C1.80005 9.32254 1.80005 15.3 9.00005 15.3C16.2 15.3 16.2 9.32254 16.2 7.5V4.5Z" fill="#D0D5DA"/>
<ellipse id="Ellipse 3372" cx="8.99995" cy="4.50005" rx="6.3" ry="2.7" fill="#D0D5DA"/>
<path id="Ellipse 3373" d="M15.3 6.29998C13.725 7.19998 11.625 7.64998 8.99995 8.09998C5.52056 8.09998 3.74995 6.74998 2.69995 6.29998C2.69995 4.80881 5.52056 3.59998 8.99995 3.59998C12.4793 3.59998 15.3 4.80881 15.3 6.29998Z" fill="#89C361"/>
<path id="Subtract" fill-rule="evenodd" clip-rule="evenodd" d="M9.00005 8.10002C12.9765 8.10002 16.2 6.48825 16.2 4.50002C16.2 2.5118 12.9765 0.900024 9.00005 0.900024C5.0236 0.900024 1.80005 2.5118 1.80005 4.50002C1.80005 6.48825 5.0236 8.10002 9.00005 8.10002ZM8.9998 7.20003C12.4082 7.20003 15.1712 5.99119 15.1712 4.50002C15.1712 3.00886 12.4082 1.80002 8.9998 1.80002C5.59141 1.80002 2.82837 3.00886 2.82837 4.50002C2.82837 5.99119 5.59141 7.20003 8.9998 7.20003Z" fill="#E5E8EB"/>
</g>
</svg>
