<svg width="18" height="18" viewBox="0 0 18 18" fill="none" xmlns="http://www.w3.org/2000/svg">
<g id="Component 1">
<path id="Vector 4092" d="M7.19995 5.39995C7.19995 4.49995 7.73995 2.69995 9.89995 2.69995C12.06 2.69995 12.6 4.49995 12.6 5.39995" stroke="#DD9A1F" stroke-width="0.9"/>
<path id="Vector 4090" d="M5.09331 4.5L3.59998 16.2H18L15.9733 4.5H5.09331Z" fill="#DD9A1F"/>
<path id="Vector 4088" d="M3.46159 4.5L1.80005 16.2H17.1L14.9954 4.5H3.46159Z" fill="#F9CB2B"/>
<path id="Vector 4089" d="M3.00527 6.30005L1.80005 16.2H14.4L12.647 6.30005H3.00527Z" fill="#DE54A7"/>
<path id="Vector 4091" d="M4.5 7.2C4.5 6.3 5.04 4.5 7.2 4.5C9.36 4.5 9.9 6.3 9.9 7.2" stroke="#DE54A7" stroke-width="0.9"/>
<path id="Vector 4087" d="M1.64348 6.30005L0 16.2H13.5L11.747 6.30005H1.64348Z" fill="#F986D2"/>
</g>
</svg>
