<svg width="16" height="15" viewBox="0 0 16 15" fill="none" xmlns="http://www.w3.org/2000/svg">
<g id="Group 1171276426">
<path id="Vector 4136" d="M1.74695 5.90527C2.22016 6.53621 2.97757 8.36604 2.22016 10.6373C1.63892 12.3803 1.27353 13.0034 1.74667 13.9498" stroke="#D70505" stroke-width="0.473205" stroke-linecap="round"/>
<path id="Vector 4138" d="M14.371 8.74512C13.8978 8.11418 13.1403 6.28435 13.8978 4.01306C14.479 2.27008 14.8444 1.64704 14.3712 0.700625" stroke="#D70505" stroke-width="0.473205" stroke-linecap="round"/>
<path id="Vector 4137" d="M2.21962 5.90527C2.69283 6.53621 3.45024 8.36604 2.69283 10.6373C2.11159 12.3803 1.74696 13.0034 2.69331 13.9498" stroke="#D70505" stroke-width="0.473205" stroke-linecap="round"/>
<path id="Vector 4139" d="M13.8983 8.74512C13.4251 8.11418 12.6677 6.28435 13.4251 4.01306C14.0063 2.27008 14.371 1.64704 13.4246 0.700625" stroke="#D70505" stroke-width="0.473205" stroke-linecap="round"/>
<g id="Group 1171276424">
<path id="Rectangle 3466796" d="M0.847559 2.00112C0.82298 1.81159 0.977939 1.64696 1.16861 1.66003L3.28297 1.80494C3.68091 1.83222 4.08646 1.81935 4.48202 1.76806C4.87758 1.71676 5.27299 1.62575 5.65081 1.49788L7.65827 0.818428C7.8393 0.757157 8.03112 0.876819 8.0557 1.06635L8.55348 4.90474C8.81161 6.89521 7.40727 8.71807 5.41679 8.9762C3.42632 9.23433 1.60346 7.82999 1.34533 5.83952L0.847559 2.00112Z" fill="#2B97E0"/>
<path id="Vector 4128" d="M2.39051 4.48146C2.43962 4.27152 2.67298 3.83413 3.21352 3.76403C3.75406 3.69393 4.09127 4.05733 4.19231 4.2478" stroke="#090909" stroke-width="0.302854" stroke-linecap="round"/>
<path id="Vector 4129" d="M5.39381 4.09279C5.44292 3.88285 5.67628 3.44546 6.21682 3.37536C6.75736 3.30526 7.09456 3.66866 7.1956 3.85912" stroke="#090909" stroke-width="0.302854" stroke-linecap="round"/>
<path id="Vector 4130" d="M4.38745 5.75048C4.45048 5.84409 4.66663 6.01963 5.02699 5.97289C5.38735 5.92616 5.55158 5.7013 5.58865 5.59471" stroke="#090909" stroke-width="0.302854" stroke-linecap="round"/>
<path id="Vector 4131" d="M3.30346 6.80663C3.47957 6.98736 4.10207 7.31376 5.18314 7.17356C6.26422 7.03337 6.78287 6.55897 6.90705 6.3393" stroke="#090909" stroke-width="0.302854" stroke-linecap="round"/>
</g>
<g id="Group 1171276425">
<path id="Rectangle 3466797" d="M8.01158 4.84796C8.05062 4.66088 8.25105 4.55627 8.42685 4.63124L10.3763 5.46256C10.7432 5.61902 11.1305 5.74007 11.521 5.82154C11.9114 5.903 12.3148 5.94691 12.7137 5.95022L14.8329 5.9678C15.024 5.96938 15.1659 6.14541 15.1269 6.3325L14.3363 10.1214C13.9264 12.0863 12.0013 13.3468 10.0364 12.9368C8.0716 12.5269 6.81112 10.6017 7.22106 8.63691L8.01158 4.84796Z" fill="#F4A441"/>
<path id="Vector 4132" d="M8.65414 7.69931C8.76948 7.51715 9.13355 7.18066 9.66712 7.29199C10.2007 7.40331 10.3998 7.85731 10.4327 8.07039" stroke="#090909" stroke-width="0.302854" stroke-linecap="round"/>
<path id="Vector 4133" d="M11.6179 8.31747C11.7332 8.13531 12.0973 7.79883 12.6309 7.91015C13.1644 8.02148 13.3636 8.47547 13.3965 8.68856" stroke="#090909" stroke-width="0.302854" stroke-linecap="round"/>
<path id="Vector 4134" d="M10.1239 9.55123C10.1526 9.66034 10.2992 9.89713 10.6549 9.97135C11.0106 10.0456 11.2396 9.88712 11.3096 9.79861" stroke="#090909" stroke-width="0.302854" stroke-linecap="round"/>
<path id="Vector 4135" d="M8.75211 10.1942C8.8591 10.4228 9.33985 10.9355 10.407 11.1582C11.4742 11.3808 12.1198 11.1031 12.3093 10.9364" stroke="#090909" stroke-width="0.302854" stroke-linecap="round"/>
</g>
</g>
</svg>
