<svg width="12" height="12" viewBox="0 0 12 12" fill="none" xmlns="http://www.w3.org/2000/svg">
<g id="ic_clock">
<path id="Subtract" fill-rule="evenodd" clip-rule="evenodd" d="M6 12C9.31371 12 12 9.31371 12 6C12 2.68629 9.31371 0 6 0C2.68629 0 0 2.68629 0 6C0 9.31371 2.68629 12 6 12ZM6.61538 2.76928C6.61538 2.42941 6.33987 2.15389 6 2.15389C5.66013 2.15389 5.38461 2.42941 5.38461 2.76928V6.46159C5.38461 6.67775 5.49803 6.87806 5.68339 6.98927L7.99108 8.37389C8.28251 8.54875 8.66052 8.45425 8.83538 8.16281C9.01024 7.87138 8.91574 7.49337 8.62431 7.31851L6.61538 6.11316V2.76928Z" fill="#7B7C87"/>
</g>
</svg>
