<svg width="18" height="18" viewBox="0 0 18 18" fill="none" xmlns="http://www.w3.org/2000/svg">
<g id="Component 1" clip-path="url(#clip0_7902_3972)">
<path id="Rectangle 3466773" d="M5.35206 3.22439C5.49881 2.90479 5.81827 2.69995 6.16995 2.69995L12.7301 2.69995C13.0818 2.69995 13.4012 2.90479 13.548 3.22439L16.2 8.99995H2.70001L5.35206 3.22439Z" fill="#4592FB"/>
<path id="Rectangle 3466774" d="M5.86523 4.12098C6.01274 3.80324 6.33122 3.59998 6.68153 3.59998L12.2184 3.59998C12.5687 3.59998 12.8872 3.80324 13.0347 4.12098L15.3 8.99998H3.59998L5.86523 4.12098Z" fill="#313D4C"/>
<path id="Rectangle 3466771" d="M0 10.2636C0 9.90602 0.211674 9.58237 0.539263 9.43905L3.42752 8.17543C3.54128 8.12567 3.6641 8.09998 3.78826 8.09998H15.1312C15.2427 8.09998 15.3534 8.12073 15.4574 8.16117L17.4262 8.92683C17.7721 9.06136 18 9.39446 18 9.76564V13.5C18 13.997 17.5971 14.4 17.1 14.4H0.899999C0.402943 14.4 0 13.997 0 13.5V10.2636Z" fill="#4592FB"/>
<path id="Ellipse 3363" d="M7.20002 14.4C6.75002 14.4 5.78972 14.4 4.05002 14.4C2.31033 14.4 1.35002 14.4 0.900024 14.4C0.900024 12.15 2.31033 10.8 4.05002 10.8C5.78972 10.8 7.20002 12.15 7.20002 14.4Z" fill="#2D67D5"/>
<path id="Ellipse 3365" d="M2.43592e-05 12.6C2.43648e-05 12.4715 2.43768e-05 12.1971 2.43986e-05 11.7C2.44203e-05 11.203 2.44323e-05 10.9286 2.44379e-05 10.8C0.562524 10.8 0.900024 11.203 0.900024 11.7C0.900024 12.1971 0.562524 12.6 2.43592e-05 12.6Z" fill="#E5E9FF"/>
<path id="Ellipse 3366" d="M18 9.89995C18 10.0285 18 10.3029 18 10.8C18 11.297 18 11.5714 18 11.7C17.4375 11.7 17.1 11.297 17.1 10.8C17.1 10.3029 17.4375 9.89995 18 9.89995Z" fill="#EF4452"/>
<path id="Ellipse 3364" d="M17.1 14.4C16.65 14.4 15.6897 14.4 13.95 14.4C12.2103 14.4 11.25 14.4 10.8 14.4C10.8 12.15 12.2103 10.8 13.95 10.8C15.6897 10.8 17.1 12.15 17.1 14.4Z" fill="#2D67D5"/>
<circle id="Ellipse 3359" cx="4.04999" cy="13.95" r="2.25" fill="#090909"/>
<circle id="Ellipse 3361" cx="4.05001" cy="13.95" r="1.35" fill="#D1D6E3"/>
<circle id="Ellipse 3360" cx="13.95" cy="13.95" r="2.25" fill="#090909"/>
<circle id="Ellipse 3362" cx="13.95" cy="13.95" r="1.35" fill="#D1D6E3"/>
<rect id="Rectangle 3466775" x="6.29999" y="13.5" width="5.4" height="0.9" fill="#2D67D5"/>
</g>
<defs>
<clipPath id="clip0_7902_3972">
<rect width="18" height="18" fill="white"/>
</clipPath>
</defs>
</svg>
