<svg width="12" height="12" viewBox="0 0 12 12" fill="none" xmlns="http://www.w3.org/2000/svg">
<g id="ic_won">
<path id="Subtract" fill-rule="evenodd" clip-rule="evenodd" d="M6 12C9.31371 12 12 9.31371 12 6C12 2.68629 9.31371 0 6 0C2.68629 0 0 2.68629 0 6C0 9.31371 2.68629 12 6 12ZM3.07472 4.26624C3.28854 4.17752 3.53121 4.2854 3.61674 4.50721L4.30335 6.28784C4.30964 6.30188 4.31522 6.31633 4.32004 6.33113L4.61952 7.10777L5.62229 4.50721C5.69505 4.31853 5.88151 4.21228 6.0672 4.23937C6.21045 4.26022 6.33922 4.3579 6.39679 4.50721L7.39957 7.10777L8.40235 4.50721C8.48787 4.2854 8.73054 4.17752 8.94436 4.26624C9.15818 4.35496 9.26219 4.60669 9.17666 4.8285L8.71022 6.03814H9.48493C9.71522 6.03814 9.9019 6.2318 9.9019 6.47069C9.9019 6.70958 9.71522 6.90324 9.48493 6.90324H8.37664L7.78673 8.43309C7.7234 8.59731 7.57007 8.705 7.39957 8.705C7.22906 8.705 7.07574 8.59731 7.01241 8.43309L6.00954 5.83229L5.00667 8.43309C4.94335 8.59731 4.79002 8.705 4.61952 8.705C4.44901 8.705 4.29568 8.59731 4.23236 8.43309L3.64211 6.90237H2.53503C2.30474 6.90237 2.11805 6.70871 2.11805 6.46982C2.11805 6.23093 2.30474 6.03727 2.53503 6.03727H3.30853L2.84243 4.8285C2.7569 4.60669 2.8609 4.35496 3.07472 4.26624Z" fill="#7B7C87"/>
</g>
</svg>
