<svg width="18" height="19" viewBox="0 0 18 19" fill="none" xmlns="http://www.w3.org/2000/svg">
<path fill-rule="evenodd" clip-rule="evenodd" d="M0 17.06V7.95897C0 7.47285 0.222731 7.01476 0.601854 6.72116L8.0822 0.928275C8.62495 0.507959 9.37505 0.507958 9.9178 0.928274L17.3981 6.72116C17.7773 7.01476 18 7.47284 18 7.95897V17.06C18 17.9177 17.3196 18.613 16.4803 18.613H12C11.4477 18.613 11 18.1555 11 17.5911V13.5032C11 12.9387 10.5523 12.4812 10 12.4812H8C7.44772 12.4812 7 12.9387 7 13.5032V17.5911C7 18.1555 6.55228 18.613 6 18.613H1.51965C0.680373 18.613 0 17.9177 0 17.06Z" fill="#090909"/>
</svg>
