<svg width="18" height="18" viewBox="0 0 18 18" fill="none" xmlns="http://www.w3.org/2000/svg">
<path fill-rule="evenodd" clip-rule="evenodd" d="M16.2 7.19995H1.79999V10.2C1.79999 12.0225 1.79999 17.1 8.99999 17.1C16.2 17.1 16.2 12.0225 16.2 10.2V7.19995Z" fill="#CB2C29"/>
<ellipse cx="8.99999" cy="7.19998" rx="7.2" ry="3.6" fill="#901A18"/>
<path d="M9.00001 5.84998C4.05001 5.84998 2.70001 7.64998 2.70001 8.99998C4.95001 10.8 10.8 12.15 15.3 8.99998C15.3 7.64998 13.9866 5.84998 9.00001 5.84998Z" fill="#F77F00"/>
<path d="M3.23962 8.81962C3.41962 8.45962 4.10362 7.73962 5.39962 7.73962C6.69562 7.73962 7.37962 8.45962 7.55962 8.81962" stroke="#FFAD00" stroke-width="0.27" stroke-linecap="round"/>
<path d="M7.84088 10.8837C7.9746 10.5041 8.5635 9.70442 9.84939 9.54284C11.1353 9.38127 11.9037 10.0104 12.1272 10.3451" stroke="#FFAD00" stroke-width="0.27" stroke-linecap="round"/>
<path d="M2.70001 8.54995C3.24001 7.73995 4.05001 7.19995 5.40001 7.19995C7.02001 7.19995 7.87501 8.18995 8.10001 8.54995" stroke="#FFAD00" stroke-width="0.27" stroke-linecap="round"/>
<path d="M7.27164 10.6831C7.70644 9.81209 8.4428 9.17532 9.78227 9.00701C11.3896 8.80505 12.3614 9.68073 12.6295 10.0099" stroke="#FFAD00" stroke-width="0.27" stroke-linecap="round"/>
<path d="M3.78015 9.09015C4.05015 8.55015 4.59015 8.28015 5.40015 8.28015C6.21015 8.28015 6.75015 8.55015 7.02015 9.09015" stroke="#FFAD00" stroke-width="0.27" stroke-linecap="round"/>
<path d="M8.41104 11.0852C8.61161 10.5157 9.11374 10.1805 9.91742 10.0795C10.7211 9.97854 11.2905 10.1791 11.6258 10.6812" stroke="#FFAD00" stroke-width="0.27" stroke-linecap="round"/>
<path d="M8.99999 10.8C3.95999 10.8 2.09999 8.39995 1.79999 7.19995V10.8C1.79999 11.7 1.79999 17.1 8.99999 17.1C15.3 17.1 16.2 12.9 16.2 10.8V7.19995C15.9 8.39995 14.04 10.8 8.99999 10.8Z" fill="#CB2C29"/>
<path d="M4.5 3.15L15.75 2.25" stroke="#C9A862" stroke-width="0.45"/>
<path d="M4.5 2.25002L15.75 0.900024" stroke="#C9A862" stroke-width="0.45"/>
<path d="M5.40002 2.69995V7.19995" stroke="#FFAD00" stroke-width="0.45" stroke-linecap="round"/>
<path d="M6.29999 2.69995V7.19995" stroke="#FFAD00" stroke-width="0.45" stroke-linecap="round"/>
<path d="M7.20001 2.69995V7.19995" stroke="#FFAD00" stroke-width="0.45" stroke-linecap="round"/>
<path d="M6.97049 6.68853C7.01696 6.66437 7.06959 6.6746 7.08407 6.71061L7.21514 7.03661C7.22474 7.0605 7.25202 7.07412 7.28497 7.07148L7.73476 7.03556C7.78444 7.03159 7.81743 7.06412 7.80596 7.10575L7.70209 7.48273C7.69448 7.51035 7.70642 7.5354 7.73268 7.54687L8.09101 7.70338C8.13059 7.72067 8.13511 7.76678 8.10076 7.80289L7.78978 8.12983C7.76699 8.15379 7.76041 8.18356 7.77293 8.20605L7.9438 8.51307C7.96267 8.54698 7.9375 8.59432 7.88948 8.61523L7.45472 8.80453C7.42286 8.8184 7.39952 8.84491 7.39495 8.8724L7.33256 9.24766C7.32567 9.28911 7.27756 9.32499 7.22873 9.3251L6.78668 9.32603C6.75429 9.3261 6.72044 9.34225 6.7 9.36738L6.42108 9.71033C6.39028 9.74821 6.33211 9.76302 6.29556 9.74229L5.96467 9.55461C5.94043 9.54086 5.90513 9.54232 5.87431 9.55834L5.45359 9.77709C5.40712 9.80125 5.35449 9.79102 5.34001 9.75501L5.20894 9.42901C5.19934 9.40513 5.17207 9.3915 5.13911 9.39414L4.68932 9.43007C4.63965 9.43403 4.60665 9.4015 4.61812 9.35987L4.722 8.98289C4.72961 8.95527 4.71766 8.93022 4.6914 8.91875L4.33307 8.76224C4.29349 8.74495 4.28897 8.69884 4.32332 8.66273L4.6343 8.33579C4.65709 8.31183 4.66367 8.28207 4.65115 8.25957L4.48028 7.95255C4.46141 7.91864 4.48658 7.8713 4.5346 7.85039L4.96937 7.66109C5.00122 7.64722 5.02456 7.62071 5.02914 7.59322L5.09152 7.21796C5.09841 7.17651 5.14652 7.14063 5.19535 7.14052L5.6374 7.13959C5.66979 7.13952 5.70364 7.12337 5.72408 7.09824L6.003 6.75529C6.03381 6.71742 6.09197 6.7026 6.12852 6.72333L6.45941 6.91101C6.48366 6.92476 6.51895 6.9233 6.54977 6.90728L6.97049 6.68853Z" fill="white"/>
<path fill-rule="evenodd" clip-rule="evenodd" d="M6.46661 7.49929C6.20748 7.46661 5.90871 7.5287 5.71371 7.59721C5.65169 7.61899 5.59182 7.59775 5.57997 7.54976C5.56813 7.50177 5.60881 7.44521 5.67083 7.42342C5.89507 7.34464 6.24041 7.27114 6.55108 7.31032C6.86957 7.35049 7.14834 7.50975 7.21567 7.88659C7.25724 8.11925 7.19825 8.33017 7.07356 8.5109C6.94989 8.69015 6.76691 8.83213 6.57248 8.93415C6.3784 9.03599 6.16787 9.10079 5.98119 9.12408C5.798 9.14693 5.61957 9.13172 5.51 9.05333C5.32893 8.92379 5.22847 8.7395 5.25745 8.52703C5.28673 8.31241 5.44555 8.08734 5.73924 7.88339L5.74116 7.88205L5.74312 7.88078C5.83667 7.81983 6.00079 7.76324 6.16091 7.74659C6.32451 7.72958 6.51119 7.75181 6.61973 7.87944C6.85572 8.15695 6.72898 8.42622 6.61341 8.54549C6.58014 8.57983 6.52762 8.61873 6.46959 8.65318C6.40993 8.6886 6.3359 8.72442 6.25613 8.74848C6.1762 8.77259 6.08604 8.78617 5.99947 8.77157C5.91129 8.7567 5.83589 8.71406 5.78134 8.63945C5.72251 8.55896 5.71168 8.47123 5.74819 8.3851C5.78373 8.30123 5.85763 8.23435 5.93458 8.18913C6.01096 8.14425 6.10001 8.11476 6.18097 8.10948C6.26165 8.10422 6.35212 8.12334 6.39025 8.19659C6.41285 8.23999 6.38336 8.29942 6.32441 8.32932C6.26545 8.35923 6.19933 8.3483 6.17674 8.3049L6.17672 8.30486C6.17642 8.30427 6.17591 8.30328 6.17246 8.30205C6.16814 8.3005 6.15929 8.2988 6.14446 8.29977C6.11376 8.30177 6.07193 8.31436 6.03391 8.33671C5.99646 8.35871 5.97244 8.38421 5.96228 8.40819C5.95307 8.42991 5.94875 8.46552 5.98432 8.51419C6.0175 8.55957 6.05654 8.57778 6.09329 8.58398C6.13166 8.59045 6.17693 8.58532 6.22671 8.5703C6.27666 8.55523 6.32662 8.53151 6.36903 8.50633C6.41305 8.4802 6.44067 8.45746 6.44936 8.44849C6.49306 8.40339 6.60646 8.22834 6.4229 8.0125C6.36362 7.94279 6.25678 7.92332 6.13502 7.93598C6.01141 7.94883 5.89963 7.99228 5.85666 8.01952C5.6114 8.1904 5.50432 8.35906 5.48464 8.50338C5.4646 8.65028 5.53257 8.79042 5.68082 8.89647C5.7359 8.93588 5.84723 8.95457 6.0013 8.93534C6.15188 8.91656 6.32612 8.86331 6.4867 8.77905C6.64692 8.69497 6.78847 8.5828 6.88163 8.44778C6.97377 8.31423 7.02388 8.15074 6.98923 7.95679C6.9346 7.65105 6.7179 7.53098 6.46661 7.49929Z" fill="#F199D8"/>
<path d="M10.8 3.15002L13.95 3.60002L13.05 8.10002L9.90002 7.20002L10.8 3.15002Z" fill="#262D26"/>
<path d="M11.7 4.5L14.85 4.95L13.95 9.45L10.8 8.55L11.7 4.5Z" fill="#343E35"/>
<path d="M12.0248 9.82981C11.2914 10.5969 10.1012 10.6491 9.36635 9.94652C8.6315 9.24392 8.63031 8.05254 9.3637 7.28549C10.0971 6.51843 11.8185 5.91063 12.5533 6.61323C13.2882 7.31582 12.7582 9.06276 12.0248 9.82981Z" fill="white"/>
<circle cx="10.4342" cy="8.47846" r="1.1025" transform="rotate(43.7146 10.4342 8.47846)" fill="#FFAD00"/>
</svg>
